<?xml version="1.0" encoding="UTF-8"?>
<svg width="15px" height="20px" viewBox="0 0 15 20" version="1.1" xmlns="http://www.w3.org/2000/svg" xmlns:xlink="http://www.w3.org/1999/xlink">
    <!-- Generator: Sketch 42 (36781) - http://www.bohemiancoding.com/sketch -->
    <title>Page 1</title>
    <desc>Created with Sketch.</desc>
    <defs></defs>
    <g id="Page-1" stroke="none" stroke-width="1" fill="none" fill-rule="evenodd">
        <g id="Hiking-Guide-Copy" transform="translate(-204.000000, -322.000000)">
            <g id="INTRO" transform="translate(200.000000, 193.000000)">
                <g id="Page-1" transform="translate(4.000000, 129.000000)">
                    <path d="M0,7.13187812 C0,3.25991751 3.29057566,0.113949523 7.33963816,0.113949523 C11.3887007,0.113949523 14.6792763,3.25991751 14.6792763,7.13187812 C14.6792763,8.16033918 14.5446875,9.21305694 14.0553783,10.1567904 C12.3848191,13.3591296 9.86597039,16.4894958 8.09375,18.9492158 C7.68503289,19.516458 7.04467105,19.5093974 6.61361842,18.9502407 C4.89884868,16.7259132 2.02942434,13.2938757 0.587171053,10.1326476 C0.146792763,9.18880025 0,8.14826777 0,7.13187812" id="Fill-1" fill="#999999"></path>
                    <path d="M4.07345888,7.32549892 C4.07345888,5.55885996 5.54138651,4.11906002 7.33962664,4.11906002 C9.13786678,4.11906002 10.6057944,5.55885996 10.6057944,7.32549892 C10.6057944,9.10409541 9.13786678,10.5441231 7.33962664,10.5441231 C5.54138651,10.5441231 4.07345888,9.10409541 4.07345888,7.32549892" id="Fill-4" fill="#FFFFFF"></path>
                </g>
            </g>
        </g>
    </g>
</svg>