<?xml version="1.0" encoding="UTF-8"?>
<svg width="16px" height="15px" viewBox="0 0 16 15" version="1.1" xmlns="http://www.w3.org/2000/svg" xmlns:xlink="http://www.w3.org/1999/xlink">
    <!-- Generator: Sketch 42 (36781) - http://www.bohemiancoding.com/sketch -->
    <title>Fill 1</title>
    <desc>Created with Sketch.</desc>
    <defs></defs>
    <g id="Page-1" stroke="none" stroke-width="1" fill="none" fill-rule="evenodd">
        <g id="Hiking-Guide-Copy" transform="translate(-805.000000, -325.000000)" fill="#999999">
            <g id="INTRO" transform="translate(200.000000, 193.000000)">
                <path d="M616.533733,132 C617.147067,132 617.7204,132.109091 618.253733,132.340909 C618.799067,132.572727 619.267067,132.9 619.679067,133.309091 C620.079067,133.704545 620.399067,134.181818 620.6404,134.727273 C620.8804,135.259091 621.0004,135.845455 621.0004,136.445455 C621.0004,137.113636 620.933733,137.713636 620.785733,138.245455 C620.6404,138.790909 620.465733,139.268182 620.239067,139.718182 C620.0124,140.154545 619.7604,140.55 619.493733,140.904545 C619.213733,141.259091 618.947067,141.6 618.6924,141.913636 L618.465733,142.172727 C618.267067,142.418182 618.0004,142.690909 617.667067,142.990909 C617.345733,143.304545 613.867067,146.481818 613.653733,146.631818 C613.4404,146.781818 613.107067,147 613.0004,147 C612.8804,147 612.547067,146.781818 612.333733,146.631818 C612.1324,146.481818 608.653733,143.304545 608.333733,142.990909 C608.0004,142.690909 607.7324,142.418182 607.533733,142.172727 L607.307067,141.913636 C607.053733,141.6 606.785733,141.259091 606.505733,140.904545 C606.239067,140.55 605.987067,140.154545 605.7604,139.718182 C605.533733,139.268182 605.359067,138.790909 605.213733,138.245455 C605.065733,137.713636 605.0004,137.113636 605.0004,136.445455 C605.0004,135.845455 605.119067,135.259091 605.359067,134.727273 C605.6004,134.181818 605.9204,133.704545 606.3204,133.309091 C606.7324,132.9 607.2004,132.572727 607.745733,132.340909 C608.2804,132.109091 608.8524,132 609.465733,132 C610.185733,132 610.839067,132.313636 611.4524,132.627273 C612.053733,132.940909 612.587067,134.113636 613.0004,134.659091 C613.4124,134.113636 613.933733,132.940909 614.533733,132.627273 C615.147067,132.313636 615.813733,132 616.533733,132" id="Fill-1"></path>
            </g>
        </g>
    </g>
</svg>